<svg xmlns="http://www.w3.org/2000/svg" viewBox="0 0 40 40"><defs><style>.cls-1{opacity:0.2;}.cls-2{fill:#32a1ea;}.cls-3{fill:none;}.cls-3,.cls-4{stroke:#0076c4;stroke-linecap:round;stroke-linejoin:round;}.cls-4{fill:#fff;}</style></defs><g id="Layer_2" data-name="Layer 2"><g id="Layer_1-2" data-name="Layer 1"><g class="cls-1"><circle class="cls-2" cx="20" cy="20" r="20"/></g><path class="cls-3" d="M21,9.78h-5.3a1.9,1.9,0,0,0-1.89,1.9V22.85a1.89,1.89,0,0,0,1.89,1.89h8.56a1.89,1.89,0,0,0,1.89-1.89V14.93Z"/><path class="cls-4" d="M25.68,30.22H14.32a3.8,3.8,0,0,1-3.79-3.79V17a3.8,3.8,0,0,1,3.79-3.79h3.79L21.89,17h3.79a3.8,3.8,0,0,1,3.79,3.79v5.69A3.8,3.8,0,0,1,25.68,30.22Z"/><path class="cls-4" d="M24.26,25.77H15.74"/><path class="cls-4" d="M19.26,22.88H15.74"/></g></g></svg>