<svg xmlns="http://www.w3.org/2000/svg" viewBox="0 0 85 85"><defs><style>.cls-1{fill:#f5fafd;}.cls-2,.cls-4{fill:none;}.cls-2,.cls-4,.cls-6{stroke:#0076c4;stroke-linecap:round;stroke-miterlimit:10;}.cls-2{opacity:0.4;}.cls-3{opacity:0.3;}.cls-5{fill:#cce4f3;}.cls-6{fill:#fff;}.cls-7,.cls-9{fill:#0076c4;}.cls-7,.cls-8{opacity:0.2;}</style></defs><g id="Layer_2" data-name="Layer 2"><g id="Layer_1-2" data-name="Layer 1"><circle class="cls-1" cx="42.5" cy="42.5" r="42.5"/><line class="cls-2" x1="21.33" y1="61.2" x2="63.67" y2="61.2"/><g class="cls-3"><line class="cls-4" x1="69.6" y1="40.32" x2="65.41" y2="40.32"/><line class="cls-4" x1="19.59" y1="40.32" x2="15.4" y2="40.32"/><line class="cls-4" x1="42.5" y1="25.83" x2="42.5" y2="19.16"/><line class="cls-4" x1="65.17" y1="30.14" x2="58.71" y2="33.87"/><line class="cls-4" x1="26.29" y1="33.87" x2="19.84" y2="30.14"/><line class="cls-4" x1="54.22" y1="25" x2="52.23" y2="28.44"/><line class="cls-4" x1="32.77" y1="28.44" x2="30.78" y2="25"/></g><path class="cls-5" d="M25.93,49.06v9.11a3.32,3.32,0,0,0,3.32,3.31h26.5a3.32,3.32,0,0,0,3.32-3.31V49.06"/><path class="cls-4" d="M25.93,49.06v9.11a3.32,3.32,0,0,0,3.32,3.31h26.5a3.32,3.32,0,0,0,3.32-3.31V49.06"/><path class="cls-4" d="M49.37,36V34.53a3.68,3.68,0,0,0-3.68-3.68H39.31a3.68,3.68,0,0,0-3.68,3.68V36"/><path class="cls-6" d="M24.54,47a1.67,1.67,0,0,0,1.16,1.89l16.8,5,16.8-5A1.67,1.67,0,0,0,60.46,47l-.72-7.63A3.67,3.67,0,0,0,56.08,36H28.92a3.67,3.67,0,0,0-3.66,3.33Z"/><path class="cls-7" d="M59.68,39l-.45,0H25.77l-.45,0A3.67,3.67,0,0,1,28.92,36H56.08A3.67,3.67,0,0,1,59.68,39Z"/><g class="cls-8"><polygon class="cls-9" points="59.07 48.92 59.07 52.53 42.51 57.44 25.94 52.53 25.94 48.92 42.51 53.84 59.07 48.92"/></g><line class="cls-6" x1="39.87" y1="39.5" x2="45.13" y2="39.5"/><path class="cls-6" d="M45.24,48.56h0A1.4,1.4,0,0,1,43.84,50H41.16a1.4,1.4,0,0,1-1.4-1.39h0"/></g></g></svg>