<svg xmlns="http://www.w3.org/2000/svg" viewBox="0 0 50 55.02"><defs><style>.cls-1{fill:#edf5fb;}.cls-2{fill:#32a1ea;}.cls-3{fill:#002f86;}.cls-4,.cls-5{fill:#fafafa;}.cls-5{opacity:0.7;}</style></defs><g id="Layer_2" data-name="Layer 2"><g id="Capa_1" data-name="Capa 1"><circle class="cls-1" cx="25" cy="30.02" r="25"/><path class="cls-2" d="M6.52,21,26.32,1.2a4.08,4.08,0,0,1,5.78,0L44.82,13.91a4.1,4.1,0,0,1,0,5.78L25,39.49a4.08,4.08,0,0,1-5.78,0L6.52,26.78A4.11,4.11,0,0,1,6.52,21Z"/><rect class="cls-3" x="4.12" y="13.61" width="36.17" height="6.54" transform="translate(-5.43 20.64) rotate(-45)"/><path class="cls-4" d="M23.39,29.56l-3,3a.84.84,0,0,1-1.16,0,.82.82,0,0,1,0-1.16l3-3a.81.81,0,0,1,1.15,0A.82.82,0,0,1,23.39,29.56Z"/><path class="cls-4" d="M27.55,30l-4.84,4.84a.82.82,0,0,1-1.16-1.16l4.84-4.84A.82.82,0,0,1,27.55,30Z"/><circle class="cls-5" cx="34.87" cy="18.65" r="3.03"/><circle class="cls-5" cx="37.01" cy="16.51" r="3.03"/></g></g></svg>