<svg xmlns="http://www.w3.org/2000/svg" viewBox="0 0 40 40"><defs><style>.cls-1{opacity:0.2;}.cls-2{fill:#32a1ea;}.cls-3{fill:#fff;}.cls-3,.cls-4{stroke:#0076c4;stroke-linecap:round;stroke-linejoin:round;}.cls-4{fill:none;}</style></defs><g id="Layer_2" data-name="Layer 2"><g id="Layer_1-2" data-name="Layer 1"><g class="cls-1"><circle class="cls-2" cx="20" cy="20" r="20"/></g><path class="cls-3" d="M18,32.48h4"/><path class="cls-3" d="M27,19.48a7,7,0,0,0-7.1-7,7.16,7.16,0,0,0-6.9,6.7,7.14,7.14,0,0,0,3.1,6.1A2,2,0,0,1,17,27v2.5h6V27a2,2,0,0,1,.9-1.7A7,7,0,0,0,27,19.48Z"/><line class="cls-4" x1="31.52" y1="18.7" x2="29.85" y2="18.7"/><line class="cls-4" x1="9.93" y1="18.7" x2="8.41" y2="18.7"/><line class="cls-4" x1="20" y1="8.84" x2="20" y2="7.18"/><line class="cls-4" x1="12.76" y1="11.46" x2="11.86" y2="10.55"/><line class="cls-4" x1="28.14" y1="10.55" x2="27.24" y2="11.46"/><path class="cls-4" d="M23.7,19.73a3.7,3.7,0,1,1-7.4,0"/></g></g></svg>