<svg xmlns="http://www.w3.org/2000/svg" viewBox="0 0 40 40"><defs><style>.cls-1{opacity:0.2;}.cls-2{fill:#32a1ea;}.cls-3{fill:#fff;stroke:#0076c4;stroke-linecap:round;stroke-linejoin:round;}</style></defs><g id="Layer_2" data-name="Layer 2"><g id="Layer_1-2" data-name="Layer 1"><g class="cls-1"><circle class="cls-2" cx="20" cy="20" r="20"/></g><path class="cls-3" d="M20.87,10.73l2.4,4.2a2.56,2.56,0,0,0,1.3,1l4.7,1a1,1,0,0,1,.5,1.7l-3.2,3.6a1.84,1.84,0,0,0-.5,1.6l.5,4.8a1,1,0,0,1-1.4,1l-4.4-2a2.21,2.21,0,0,0-1.6,0l-4.4,2a1,1,0,0,1-1.4-1l.5-4.8a1.94,1.94,0,0,0-.5-1.6l-3.2-3.6a1.06,1.06,0,0,1,.5-1.7l4.7-1a1.89,1.89,0,0,0,1.3-1l2.4-4.2A1.13,1.13,0,0,1,20.87,10.73Z"/></g></g></svg>