<svg xmlns="http://www.w3.org/2000/svg" viewBox="0 0 50 65.5"><defs><style>.cls-1{fill:#edf5fb;}.cls-2{opacity:0.2;}.cls-3{fill:#0076c4;}.cls-4,.cls-6{fill:#fff;}.cls-5{fill:none;stroke-miterlimit:10;}.cls-5,.cls-6{stroke:#0076c4;stroke-linecap:round;stroke-width:1.5px;}.cls-6{stroke-linejoin:round;}</style></defs><g id="Layer_2" data-name="Layer 2"><g id="Layer_1-2" data-name="Layer 1"><circle class="cls-1" cx="25" cy="40.5" r="25"/><g class="cls-2"><circle class="cls-3" cx="25" cy="28.43" r="16.68"/></g><circle class="cls-4" cx="25" cy="28.43" r="12.41"/><path class="cls-3" d="M25,16.77A11.66,11.66,0,1,1,13.34,28.43,11.67,11.67,0,0,1,25,16.77m0-1.5A13.16,13.16,0,1,0,38.16,28.43,13.16,13.16,0,0,0,25,15.27Z"/><g class="cls-2"><path class="cls-3" d="M32.91,28.47a7.9,7.9,0,0,1-1.19,4.17L25.34,28.8V20.58A7.9,7.9,0,0,1,32.91,28.47Z"/></g><polyline class="cls-5" points="32.44 33.08 25.36 28.83 25.36 20.71"/><line class="cls-5" x1="25.24" y1="15.5" x2="25.24" y2="11.68"/><rect class="cls-6" x="21.89" y="10.27" width="6.69" height="2.81" rx="1.41"/><line class="cls-5" x1="46.43" y1="19.24" x2="43.17" y2="19.24"/><line class="cls-5" x1="7.46" y1="19.24" x2="4.2" y2="19.24"/><line class="cls-5" x1="25.31" y1="5.95" x2="25.31" y2="0.75"/><line class="cls-5" x1="42.98" y1="10.31" x2="37.94" y2="13.21"/><line class="cls-5" x1="12.68" y1="13.21" x2="7.65" y2="10.31"/><line class="cls-5" x1="34.45" y1="5.3" x2="32.9" y2="7.98"/><line class="cls-5" x1="17.73" y1="7.98" x2="16.18" y2="5.3"/></g></g></svg>