<svg xmlns="http://www.w3.org/2000/svg" viewBox="0 0 85 85"><defs><style>.cls-1{fill:#f5fafd;}.cls-2{opacity:0.3;}.cls-3,.cls-6{fill:none;}.cls-3,.cls-4,.cls-5,.cls-6{stroke:#0076c4;stroke-miterlimit:10;}.cls-3,.cls-5,.cls-6{stroke-linecap:round;}.cls-4{fill:#cce4f3;}.cls-5{fill:#fff;}.cls-6{opacity:0.5;}.cls-7{fill:#0076c4;opacity:0.2;}</style></defs><g id="Layer_2" data-name="Layer 2"><g id="Layer_1-2" data-name="Layer 1"><circle class="cls-1" cx="42.5" cy="42.5" r="42.5"/><g class="cls-2"><line class="cls-3" x1="72.6" y1="31.9" x2="68.41" y2="31.9"/><line class="cls-3" x1="16.59" y1="31.9" x2="12.4" y2="31.9"/><line class="cls-3" x1="42.5" y1="19.42" x2="42.5" y2="12.75"/><line class="cls-3" x1="68.17" y1="21.73" x2="61.71" y2="25.45"/><line class="cls-3" x1="23.29" y1="25.45" x2="16.83" y2="21.73"/><line class="cls-3" x1="55.22" y1="16.58" x2="53.23" y2="20.03"/><line class="cls-3" x1="31.77" y1="20.03" x2="29.78" y2="16.58"/></g><rect class="cls-4" x="24.9" y="36.7" width="35.19" height="26.54" rx="3.08"/><rect class="cls-5" x="22" y="30.03" width="41" height="30.92" rx="3.59"/><path class="cls-6" d="M25.59,43V35.41a1.79,1.79,0,0,1,1.79-1.79H57.62a1.79,1.79,0,0,1,1.79,1.79V51.09"/><polygon class="cls-4" points="35.51 65.5 32.33 63.7 29.14 65.5 29.14 52.84 35.51 52.84 35.51 65.5"/><path class="cls-7" d="M32.78,46.31l1.72,2.28,2.83-.4a.56.56,0,0,1,.63.64l-.4,2.83,2.29,1.71a.56.56,0,0,1,0,.9L37.56,56l.4,2.83a.56.56,0,0,1-.63.64l-2.83-.4-1.72,2.28a.56.56,0,0,1-.9,0l-1.72-2.28-2.83.4a.57.57,0,0,1-.64-.64L27.1,56l-2.29-1.72a.56.56,0,0,1,0-.9l2.29-1.71-.41-2.83a.57.57,0,0,1,.64-.64l2.83.4,1.72-2.28A.56.56,0,0,1,32.78,46.31Z"/><path class="cls-5" d="M32.74,45.1l1.58,2.11,2.61-.37a.52.52,0,0,1,.59.59L37.15,50l2.11,1.59a.53.53,0,0,1,0,.83L37.15,54l.37,2.61a.51.51,0,0,1-.59.58l-2.61-.37L32.74,59a.52.52,0,0,1-.83,0l-1.58-2.11-2.61.37a.51.51,0,0,1-.58-.58L27.51,54,25.4,52.45a.52.52,0,0,1,0-.83L27.51,50l-.37-2.6a.51.51,0,0,1,.58-.59l2.61.37,1.58-2.11A.53.53,0,0,1,32.74,45.1Z"/><polygon class="cls-4" points="60.48 58.46 48.38 47.76 48.24 63.91 52.04 60.57 54.9 67 58.32 65.48 55.45 59.05 60.48 58.46"/><line class="cls-3" x1="38.47" y1="38.32" x2="46.53" y2="38.32"/><line class="cls-3" x1="34.88" y1="41.01" x2="50.12" y2="41.01"/><circle class="cls-4" cx="32.33" cy="52.03" r="3.14"/></g></g></svg>