<svg xmlns="http://www.w3.org/2000/svg" viewBox="0 0 85 85"><defs><style>.cls-1{fill:#f5fafd;}.cls-2,.cls-4,.cls-7{fill:none;}.cls-2,.cls-4,.cls-5,.cls-6,.cls-7{stroke:#0076c4;stroke-linecap:round;}.cls-2,.cls-4{stroke-miterlimit:10;}.cls-2{opacity:0.4;}.cls-3{opacity:0.3;}.cls-5{fill:#fff;}.cls-5,.cls-6,.cls-7{stroke-linejoin:round;}.cls-6{fill:#cce4f3;}.cls-8{fill:#0076c4;opacity:0.2;}</style></defs><g id="Layer_2" data-name="Layer 2"><g id="Layer_1-2" data-name="Layer 1"><circle class="cls-1" cx="42.5" cy="42.5" r="42.5"/><line class="cls-2" x1="20.32" y1="61.89" x2="62.67" y2="61.89"/><g class="cls-3"><line class="cls-4" x1="67.6" y1="34.98" x2="64.41" y2="34.98"/><line class="cls-4" x1="20.59" y1="34.98" x2="17.4" y2="34.98"/><line class="cls-4" x1="42.5" y1="19.49" x2="42.5" y2="12.82"/><line class="cls-4" x1="65.17" y1="23.8" x2="58.71" y2="27.53"/><line class="cls-4" x1="26.29" y1="27.53" x2="19.83" y2="23.8"/><line class="cls-4" x1="54.22" y1="18.66" x2="52.23" y2="22.1"/><line class="cls-4" x1="32.77" y1="22.1" x2="30.78" y2="18.66"/></g><polygon class="cls-5" points="35.42 26.47 27.48 34.41 27.48 62.18 54.56 62.18 54.56 26.47 35.42 26.47"/><polygon class="cls-6" points="35.42 34.41 35.42 26.47 27.48 34.41 35.42 34.41"/><line class="cls-5" x1="33.35" y1="40.1" x2="48.69" y2="40.1"/><line class="cls-5" x1="33.35" y1="43.37" x2="46.01" y2="43.37"/><line class="cls-5" x1="33.35" y1="46.64" x2="43.33" y2="46.64"/><line class="cls-5" x1="33.35" y1="49.91" x2="38.87" y2="49.91"/><line class="cls-5" x1="33.35" y1="58.15" x2="36.86" y2="58.15"/><rect class="cls-6" x="49.24" y="38.67" width="5.67" height="15.07" transform="translate(47.92 -23.29) rotate(45)"/><line class="cls-6" x1="40.13" y1="58.15" x2="41.77" y2="56.5"/><polygon class="cls-6" points="42.52 57.24 41.03 55.76 44.74 49.53 48.75 53.54 42.52 57.24"/><path class="cls-5" d="M59.25,36.4h0a2.83,2.83,0,0,1,2.83,2.83v2.41a0,0,0,0,1,0,0H56.42a0,0,0,0,1,0,0V39.24A2.83,2.83,0,0,1,59.25,36.4Z" transform="translate(44.95 -30.47) rotate(45)"/><path class="cls-7" d="M55.39,38.87l4.92,4.92a1.79,1.79,0,0,1,0,2.53L56.67,50"/><path class="cls-8" d="M61.11,37.25h0a2.78,2.78,0,0,0-1.23-.7,2.82,2.82,0,0,1-.3,3.64l-1.7,1.7L47.23,52.55l-5.95,3.54,1.24,1.24,6.23-3.71L59.4,43l1.71-1.71A2.85,2.85,0,0,0,61.11,37.25Z"/><rect class="cls-8" x="27.48" y="34.4" width="6.49" height="2.89"/></g></g></svg>