<svg xmlns="http://www.w3.org/2000/svg" viewBox="0 0 50 55.1"><defs><style>.cls-1{fill:#edf5fb;}.cls-2{opacity:0.2;}.cls-3{fill:#0076c4;}.cls-4{fill:none;stroke:#0076c4;stroke-linecap:round;stroke-linejoin:round;stroke-width:1.5px;}.cls-5{fill:#fff;}</style></defs><g id="Layer_2" data-name="Layer 2"><g id="Layer_1-2" data-name="Layer 1"><circle class="cls-1" cx="25" cy="30.1" r="25"/><g class="cls-2"><circle class="cls-3" cx="22.75" cy="21.74" r="9.82"/></g><g class="cls-2"><path class="cls-3" d="M6,19.67a16.75,16.75,0,0,1,16.59-15c8.69,0,13.34,6.65,14.13,15.17H44a19,19,0,0,0-38-.12Z"/></g><path class="cls-4" d="M6,19.67a16.75,16.75,0,0,1,16.59-15c8.69,0,13.34,6.65,14.13,15.17H44a19,19,0,0,0-38-.12Z"/><path class="cls-5" d="M22.73,25.74a4,4,0,0,1-4-4,4,4,0,0,1,4-4h.2L33,1.64a.76.76,0,0,1,.64-.35.77.77,0,0,1,.36.09.75.75,0,0,1,.31,1L26.06,19.42a4.12,4.12,0,0,1,.71,2.28A4,4,0,0,1,22.73,25.74Z"/><path class="cls-3" d="M33.63,2h0m0,0L25.19,19.5A3.42,3.42,0,0,1,26,21.7a3.29,3.29,0,1,1-3.28-3.28,2.69,2.69,0,0,1,.58,0L33.63,2m0-1.5h-.14a1.68,1.68,0,0,0-.63.21,1.27,1.27,0,0,0-.42.38,1.13,1.13,0,0,0-.1.13L22.51,16.92a4.79,4.79,0,1,0,5,4.78,4.93,4.93,0,0,0-.61-2.32L35,2.76A1.57,1.57,0,0,0,35.13,2,1.49,1.49,0,0,0,33.7.54Zm0,3Z"/><path class="cls-4" d="M34,11l5.2-3.83"/><path class="cls-4" d="M22.57,4.62,22,1"/><circle class="cls-3" cx="22.75" cy="21.74" r="1.32"/></g></g></svg>