<svg xmlns="http://www.w3.org/2000/svg" viewBox="0 0 50 55.97"><defs><style>.cls-1{fill:#edf5fb;}.cls-2{opacity:0.2;}.cls-3{fill:#0076c4;}.cls-4{fill:#fff;}.cls-4,.cls-5{stroke:#0076c4;stroke-linecap:round;stroke-linejoin:round;stroke-width:1.5px;}.cls-5{fill:none;}</style></defs><g id="Layer_2" data-name="Layer 2"><g id="Layer_1-2" data-name="Layer 1"><circle class="cls-1" cx="25" cy="30.97" r="25"/><g class="cls-2"><path class="cls-3" d="M11.07,9V29.27a3,3,0,0,0,3,3H30.69a3,3,0,0,0,3-3V14.15L25.53,6H14.11A3,3,0,0,0,11.07,9Z"/></g><path class="cls-4" d="M16.28,3.78V24.07a3,3,0,0,0,3,3H35.89a3,3,0,0,0,3-3V8.94L30.73.75H19.31A3,3,0,0,0,16.28,3.78Z"/><g class="cls-2"><path class="cls-3" d="M16.28,23.56v.51a3,3,0,0,0,3,3H35.89a3,3,0,0,0,3-3v-.51Z"/></g><g class="cls-2"><polygon class="cls-3" points="38.93 8.95 30.73 0.75 30.73 8.95 38.93 8.95"/></g><polygon class="cls-5" points="38.93 8.95 30.73 0.75 30.73 8.95 38.93 8.95"/><line class="cls-5" x1="20.91" y1="7.37" x2="25.6" y2="7.37"/><line class="cls-5" x1="20.91" y1="11.68" x2="25.6" y2="11.68"/><line class="cls-5" x1="20.91" y1="15.99" x2="33.69" y2="15.99"/><line class="cls-5" x1="20.91" y1="20.3" x2="33.69" y2="20.3"/></g></g></svg>