<svg xmlns="http://www.w3.org/2000/svg" viewBox="0 0 50 53.73"><defs><style>.cls-1{fill:#edf5fb;}.cls-2{fill:#003087;}.cls-3{fill:#009cde;}.cls-4{fill:#012169;}</style></defs><g id="Layer_2" data-name="Layer 2"><g id="Capa_1" data-name="Capa 1"><circle class="cls-1" cx="25" cy="28.73" r="25"/><path class="cls-2" d="M37.58,2.93C35.78.88,32.52,0,28.36,0H16.28a1.74,1.74,0,0,0-1.71,1.46l-5,31.9a1,1,0,0,0,.87,1.18l.16,0H18L19.9,22.68l-.06.37a1.72,1.72,0,0,1,1.7-1.46h3.55c7,0,12.41-2.83,14-11,0-.24.09-.47.13-.7.47-3,0-5.08-1.64-7"/><path class="cls-2" d="M37.58,2.93C35.78.88,32.52,0,28.36,0H16.28a1.74,1.74,0,0,0-1.71,1.46l-5,31.9a1,1,0,0,0,.87,1.18l.16,0H18L19.9,22.68l-.06.37a1.72,1.72,0,0,1,1.7-1.46h3.55c7,0,12.41-2.83,14-11,0-.24.09-.47.13-.7.47-3,0-5.08-1.64-7"/><path class="cls-2" d="M21.91,9.92A1.51,1.51,0,0,1,23.4,8.64h9.47A19.09,19.09,0,0,1,36,8.87a13.83,13.83,0,0,1,1.55.34,8.48,8.48,0,0,1,1.66.67c.48-3,0-5.08-1.63-7C35.78.88,32.52,0,28.36,0H16.28a1.74,1.74,0,0,0-1.71,1.46l-5,31.9a1,1,0,0,0,.87,1.18l.16,0H18L19.9,22.68Z"/><path class="cls-3" d="M39.21,9.88c0,.23-.07.47-.12.7-1.59,8.18-7,11-14,11H21.54a1.72,1.72,0,0,0-1.7,1.46L18,34.56l-.52,3.26a.91.91,0,0,0,.75,1h6.43a1.52,1.52,0,0,0,1.5-1.28l.06-.32,1.18-7.51.08-.41A1.51,1.51,0,0,1,29,28.07h.94c6.09,0,10.86-2.47,12.25-9.63.58-3,.28-5.48-1.25-7.24a6,6,0,0,0-1.73-1.32"/><path class="cls-4" d="M37.55,9.21,36.8,9c-.26-.06-.53-.11-.8-.15a19.09,19.09,0,0,0-3.13-.23H23.4a1.51,1.51,0,0,0-1.49,1.28l-2,12.76-.06.37a1.72,1.72,0,0,1,1.7-1.46h3.55c7,0,12.41-2.83,14-11,0-.24.09-.47.12-.7a8.78,8.78,0,0,0-1.3-.56l-.36-.11"/></g></g></svg>