<svg xmlns="http://www.w3.org/2000/svg" viewBox="0 0 40 40"><defs><style>.cls-1{opacity:0.2;}.cls-2{fill:#32a1ea;}.cls-3{fill:#fff;}.cls-3,.cls-4{stroke:#0076c4;stroke-linecap:round;stroke-linejoin:round;}.cls-4{fill:none;}</style></defs><g id="Layer_2" data-name="Layer 2"><g id="Layer_1-2" data-name="Layer 1"><g class="cls-1"><circle class="cls-2" cx="20" cy="20" r="20"/></g><rect class="cls-3" x="12.76" y="11.39" width="14.49" height="18.32" rx="6.51"/><path class="cls-3" d="M8.61,17l9.9-6.25a2.81,2.81,0,0,1,3,0L31.39,17a.93.93,0,0,1,0,1.58l-9.9,6.25a2.81,2.81,0,0,1-3,0l-9.9-6.25A.93.93,0,0,1,8.61,17Z"/><polyline class="cls-4" points="20 17.76 31.82 17.76 31.82 23.92"/><line class="cls-4" x1="31.82" y1="22.59" x2="31.1" y2="23.92"/><line class="cls-4" x1="31.82" y1="22.59" x2="32.54" y2="23.92"/></g></g></svg>