<svg xmlns="http://www.w3.org/2000/svg" viewBox="0 0 85 85"><defs><style>.cls-1{fill:#f5fafd;}.cls-2{opacity:0.3;}.cls-3{fill:none;}.cls-3,.cls-4,.cls-7,.cls-8{stroke:#0076c4;stroke-miterlimit:10;}.cls-3,.cls-8{stroke-linecap:round;}.cls-4,.cls-8{fill:#fff;}.cls-5,.cls-6{fill:#0076c4;}.cls-5{opacity:0.2;}.cls-7{fill:#cce4f3;}</style></defs><g id="Layer_2" data-name="Layer 2"><g id="Layer_1-2" data-name="Layer 1"><circle class="cls-1" cx="42.5" cy="42.5" r="42.5"/><g class="cls-2"><line class="cls-3" x1="65.6" y1="33.03" x2="61.41" y2="33.03"/><line class="cls-3" x1="23.59" y1="33.03" x2="19.4" y2="33.03"/><line class="cls-3" x1="42.5" y1="16.55" x2="42.5" y2="9.87"/><line class="cls-3" x1="66.17" y1="22.86" x2="60.71" y2="25.58"/><line class="cls-3" x1="24.29" y1="25.58" x2="18.83" y2="22.86"/><line class="cls-3" x1="55.22" y1="15.71" x2="53.23" y2="19.16"/><line class="cls-3" x1="31.77" y1="19.16" x2="29.78" y2="15.71"/></g><rect class="cls-4" x="28.66" y="27.14" width="27.53" height="37"/><polygon class="cls-5" points="34.7 27.14 28.66 33.18 28.66 27.14 34.7 27.14"/><path class="cls-4" d="M20.54,61.7,22,59.18a1,1,0,0,1,1.17-.45l7.76,2.51a1,1,0,0,1,.66,1.18l-1.07,4.47"/><circle class="cls-6" cx="28.99" cy="63.15" r="0.52"/><path class="cls-7" d="M23.42,58.81c-.24-2.79-1.37-7.55-1.37-9.7s4.88-6.2,6.59-7.69V50.9a1.81,1.81,0,0,0,1.59-1.76c.11-1.17.41-4.07,1.43-4.65A1.53,1.53,0,0,1,34,45.83c.16,1.45-.6,3.76-.6,4.74s.09,3.3-.06,5c-.2,2.15-1.81,3.56-3,5.51Z"/><path class="cls-4" d="M64.46,61.7,63,59.18a1,1,0,0,0-1.17-.45l-7.76,2.51a1,1,0,0,0-.66,1.18l1.07,4.47"/><circle class="cls-6" cx="56.01" cy="63.15" r="0.52"/><path class="cls-7" d="M61.58,58.81C61.82,56,63,51.26,63,49.11s-4.88-6.2-6.59-7.69V50.9a1.81,1.81,0,0,1-1.59-1.76c-.11-1.17-.41-4.07-1.43-4.65A1.53,1.53,0,0,0,51,45.83c-.16,1.45.6,3.76.6,4.74s-.09,3.3.06,5c.2,2.15,1.81,3.56,3,5.51Z"/><line class="cls-3" x1="37.6" y1="54.5" x2="47.26" y2="54.5"/><line class="cls-3" x1="37.6" y1="57.13" x2="41.91" y2="57.13"/><line class="cls-3" x1="43.57" y1="57.13" x2="47.26" y2="57.13"/><line class="cls-3" x1="37.6" y1="59.77" x2="47.26" y2="59.77"/><line class="cls-3" x1="37.6" y1="23.42" x2="47.26" y2="23.42"/><circle class="cls-5" cx="42.5" cy="39.29" r="8.45"/><path class="cls-4" d="M46.25,37.29a1.46,1.46,0,0,0-.4-1v-.11a3.27,3.27,0,1,0-6.54,0v.11a1.49,1.49,0,0,0,.3,2.28,3,3,0,0,0,5.94,0A1.46,1.46,0,0,0,46.25,37.29Z"/><path class="cls-7" d="M45.85,36.16c-.59.12-.82-.83-1.4-.83a15.18,15.18,0,0,1-1.87.47c-.71,0-1.41-.47-1.86-.47s-1,1-1.41.94v-.11a3.27,3.27,0,1,1,6.54,0Z"/><path class="cls-7" d="M48,45.52a7.18,7.18,0,0,1-10.74,0,5.1,5.1,0,0,1,2.85-3.75,3.94,3.94,0,0,0,5,0A5.12,5.12,0,0,1,48,45.52Z"/><line class="cls-8" x1="39.65" y1="47.37" x2="39.65" y2="45.06"/><line class="cls-8" x1="45.51" y1="47.37" x2="45.51" y2="45.06"/></g></g></svg>