<svg xmlns="http://www.w3.org/2000/svg" viewBox="0 0 40 40"><defs><style>.cls-1{opacity:0.2;}.cls-2{fill:#32a1ea;}.cls-3{fill:none;}.cls-3,.cls-4{stroke:#0076c4;stroke-linecap:round;stroke-linejoin:round;}.cls-4{fill:#fff;}</style></defs><g id="Layer_2" data-name="Layer 2"><g id="Layer_1-2" data-name="Layer 1"><g class="cls-1"><circle class="cls-2" cx="20" cy="20" r="20"/></g><path class="cls-3" d="M28.31,26.35A10.46,10.46,0,0,0,13.65,11.69"/><path class="cls-4" d="M26.05,26v2.43a1.67,1.67,0,0,1-.53,1.2A1.57,1.57,0,0,1,25,30a1.69,1.69,0,0,1-.67.08,16.29,16.29,0,0,1-11.84-7.34,16.18,16.18,0,0,1-2.48-7A1.64,1.64,0,0,1,10,15a1.56,1.56,0,0,1,.34-.58,1.78,1.78,0,0,1,.54-.39,1.61,1.61,0,0,1,.65-.13H14a1.57,1.57,0,0,1,1.07.39,1.62,1.62,0,0,1,.55,1,10.33,10.33,0,0,0,.56,2.27,1.66,1.66,0,0,1,.07.91,1.57,1.57,0,0,1-.43.8l-1,1a12.93,12.93,0,0,0,4.86,4.85l1-1a1.6,1.6,0,0,1,1.71-.37,10.07,10.07,0,0,0,2.27.57,1.57,1.57,0,0,1,1,.55A1.62,1.62,0,0,1,26.05,26Z"/><polyline class="cls-3" points="20 13.94 20 20 26.05 20"/></g></g></svg>