<svg xmlns="http://www.w3.org/2000/svg" viewBox="0 0 50 53.12"><defs><style>.cls-1{fill:#edf5fb;}.cls-2{fill:#002f86;}.cls-3{fill:#32a1ea;}</style></defs><g id="Layer_2" data-name="Layer 2"><g id="Capa_1" data-name="Capa 1"><circle class="cls-1" cx="25" cy="28.12" r="25"/><path class="cls-2" d="M39.26,12.42l-.08-1.25s-.07.45-.2,1.24c0,.39-.13.86-.22,1.4a14.19,14.19,0,0,1-.5,1.76,9.59,9.59,0,0,1-.78,2,10.24,10.24,0,0,1-1.16,2l-.7,1a11.79,11.79,0,0,1-.84.9,12.77,12.77,0,0,1-1.87,1.65,22,22,0,0,1-2.07,1.33c-.76.33-1.43.74-2.18,1a16.94,16.94,0,0,1-2.12.7c-.67.22-1.34.33-1.94.47l-1.07.18c0-.1.08-.2.11-.3a18.11,18.11,0,0,0,.72-3c.07-.53.12-1.07.16-1.63a11.35,11.35,0,0,0,0-1.74,12.61,12.61,0,0,0-1.56.78c-.47.29-.93.59-1.37.91a18.5,18.5,0,0,0-2.33,2,22.73,22.73,0,0,0-3.54,4.79l-.12.21A3,3,0,0,0,16,32.2a22.36,22.36,0,0,0,3.85,3.45A18.87,18.87,0,0,0,22.13,37a13.23,13.23,0,0,0,2.74,1.05,14,14,0,0,0-.5-2.89,17.56,17.56,0,0,0-.89-2.5c.77-.25,1.7-.59,2.75-1,.68-.32,1.43-.63,2.17-1.06a23.82,23.82,0,0,0,2.31-1.38c.79-.48,1.52-1.15,2.29-1.73a24.49,24.49,0,0,0,2.09-2.11A15.37,15.37,0,0,0,36.82,23c.24-.41.52-.8.72-1.23s.37-.86.54-1.28A11.54,11.54,0,0,0,38.86,18a9.39,9.39,0,0,0,.36-2.25,13.12,13.12,0,0,0,.12-1.89C39.3,13.32,39.28,12.82,39.26,12.42Z"/><path class="cls-3" d="M34.58,6.16a22.64,22.64,0,0,0-3.74-3.57,17.66,17.66,0,0,0-2.3-1.46A14.23,14.23,0,0,0,25.83,0a13.88,13.88,0,0,0,.42,2.91,17.54,17.54,0,0,0,.81,2.51c-.78.23-1.72.55-2.78,1-.69.3-1.44.58-2.2,1A23.28,23.28,0,0,0,19.74,8.7c-.81.45-1.56,1.1-2.35,1.65a23,23,0,0,0-2.14,2.05,15,15,0,0,0-1.81,2.33c-.25.41-.54.79-.75,1.21L12.1,17.2a11.59,11.59,0,0,0-.84,2.44,9.58,9.58,0,0,0-.43,2.24,13.75,13.75,0,0,0-.18,1.89c0,.56,0,1.05,0,1.46,0,.79,0,1.25,0,1.25s.08-.45.23-1.24l.26-1.39a14.42,14.42,0,0,1,.56-1.74,9,9,0,0,1,.84-1.95,11.26,11.26,0,0,1,1.22-2l.73-1c.25-.31.58-.58.87-.88a11.71,11.71,0,0,1,1.91-1.58,21.82,21.82,0,0,1,2.1-1.28c.77-.31,1.45-.7,2.21-.92a19.08,19.08,0,0,1,2.14-.64c.68-.2,1.36-.29,2-.41l1.07-.15-.12.3a17.85,17.85,0,0,0-.8,3c-.09.54-.16,1.08-.22,1.63a12.72,12.72,0,0,0,0,1.75,13.7,13.7,0,0,0,1.59-.74c.48-.28.94-.57,1.39-.86a18.06,18.06,0,0,0,2.4-2,22.94,22.94,0,0,0,3.68-4.68l.12-.21A2.94,2.94,0,0,0,34.58,6.16Z"/></g></g></svg>